<svg xmlns="http://www.w3.org/2000/svg" width="1682.265" height="621.479" viewBox="0 0 1682.265 621.479">
  <g id="Path_1" data-name="Path 1" transform="translate(-2513 -132.446)" fill="#110f0f" stroke-linecap="round" stroke-linejoin="round">
    <path d="M 4194.7646484375 753.425048828125 L 3645.951171875 753.425048828125 L 3645.951171875 682.2158813476562 L 3645.951171875 681.7158813476562 L 3645.451171875 681.7158813476562 L 3362.33837890625 681.7158813476562 L 3361.83837890625 681.7158813476562 L 3361.83837890625 682.2158813476562 L 3361.83837890625 753.425048828125 L 2655.056396484375 753.425048828125 L 2655.056396484375 682.2158813476562 L 2655.056396484375 681.7158813476562 L 2654.556396484375 681.7158813476562 L 2513.5 681.7158813476562 L 2513.5 132.9463195800781 L 3911.65185546875 132.9463195800781 L 3911.65185546875 238.3025817871094 L 3911.65185546875 238.8025817871094 L 3912.15185546875 238.8025817871094 L 4194.7646484375 238.8025817871094 L 4194.7646484375 753.425048828125 Z" stroke="none"/>
    <path d="M 2514 133.4463500976562 L 2514 681.2159423828125 L 2654.556396484375 681.2159423828125 C 2655.108642578125 681.2159423828125 2655.556396484375 681.6636352539062 2655.556396484375 682.2159423828125 L 2655.556396484375 752.925048828125 L 3361.33837890625 752.925048828125 L 3361.33837890625 682.2159423828125 C 3361.33837890625 681.6636352539062 3361.7861328125 681.2159423828125 3362.33837890625 681.2159423828125 L 3645.451171875 681.2159423828125 C 3646.00341796875 681.2159423828125 3646.451171875 681.6636352539062 3646.451171875 682.2159423828125 L 3646.451171875 752.925048828125 L 4194.2646484375 752.925048828125 L 4194.2646484375 239.3025512695312 L 3912.15185546875 239.3025512695312 C 3911.599609375 239.3025512695312 3911.15185546875 238.8548583984375 3911.15185546875 238.3025512695312 L 3911.15185546875 133.4463500976562 L 2514 133.4463500976562 M 2513 132.4463500976562 L 3912.15185546875 132.4463500976562 L 3912.15185546875 238.3025512695312 L 4195.2646484375 238.3025512695312 L 4195.2646484375 753.925048828125 L 3645.451171875 753.925048828125 L 3645.451171875 682.2159423828125 L 3362.33837890625 682.2159423828125 L 3362.33837890625 753.925048828125 L 2654.556396484375 753.925048828125 L 2654.556396484375 682.2159423828125 L 2513 682.2159423828125 L 2513 132.4463500976562 Z" stroke="none" fill="#707070"/>
  </g>
</svg>
